<?xml version="1.0" standalone="no"?>
<!DOCTYPE svg PUBLIC "-//W3C//DTD SVG 20010904//EN"
 "http://www.w3.org/TR/2001/REC-SVG-20010904/DTD/svg10.dtd">
<svg version="1.0" xmlns="http://www.w3.org/2000/svg"
 width="60.000000pt" height="60.000000pt" viewBox="0 0 60.000000 60.000000"
 preserveAspectRatio="xMidYMid meet">

<g transform="translate(0.000000,60.000000) scale(0.100000,-0.100000)"
fill="#000000" stroke="none">
<path d="M187 538 c-82 -46 -119 -73 -148 -110 -21 -28 -39 -54 -39 -58 0 -5
14 -18 30 -30 29 -21 30 -24 30 -105 l0 -83 109 -71 c60 -39 115 -73 123 -76
8 -3 65 27 131 71 l117 76 0 82 c0 80 1 83 30 104 17 13 30 27 30 31 0 5 -18
32 -40 59 -29 38 -65 65 -138 106 -55 31 -105 58 -113 61 -8 2 -63 -23 -122
-57z m199 -30 c41 -23 74 -44 74 -47 0 -9 -145 -101 -159 -101 -13 0 -161 92
-161 100 0 8 144 89 159 89 7 1 47 -18 87 -41z m-202 -135 c42 -27 76 -51 76
-55 0 -4 -13 -16 -30 -28 l-29 -21 -71 51 c-38 29 -70 54 -70 58 0 9 32 42 41
42 4 0 42 -21 83 -47z m338 30 c10 -9 18 -20 18 -24 0 -4 -32 -30 -70 -58
l-70 -51 -30 22 c-17 12 -30 24 -30 27 0 7 142 99 154 100 5 1 18 -6 28 -16z"/>
</g>
</svg>
