<svg xmlns="http://www.w3.org/2000/svg" width="31.667" height="31.667" viewBox="0 0 31.667 31.667">
  <path id="Vector" d="M15.833,0A15.833,15.833,0,1,0,31.667,15.833,15.839,15.839,0,0,0,15.833,0Zm5.716,10.038a3.056,3.056,0,1,1-3.056,3.056,3.048,3.048,0,0,1,3.056-3.056Zm-9.5-2.5a3.737,3.737,0,1,1-3.737,3.737A3.744,3.744,0,0,1,12.049,7.537Zm0,14.456V27.93a12.677,12.677,0,0,1-8.138-7.853C5.573,18.3,9.722,17.4,12.049,17.4a16.106,16.106,0,0,1,3.008.348C12.461,19.127,12.049,20.948,12.049,21.993ZM15.833,28.5a10.847,10.847,0,0,1-1.251-.063V21.993c0-2.248,4.655-3.372,6.967-3.372a11.225,11.225,0,0,1,6.08,1.821,12.7,12.7,0,0,1-11.8,8.059Z" fill="rgba(0,0,0,0.6)"/>
</svg>
